<?xml version="1.0" standalone="no"?>
<!DOCTYPE svg PUBLIC "-//W3C//DTD SVG 20010904//EN"
 "http://www.w3.org/TR/2001/REC-SVG-20010904/DTD/svg10.dtd">
<svg version="1.0" xmlns="http://www.w3.org/2000/svg"
 width="198.000000pt" height="260.000000pt" viewBox="0 0 198.000000 260.000000"
 preserveAspectRatio="xMidYMid meet">

<g transform="translate(0.000000,260.000000) scale(0.100000,-0.100000)"
fill="#000000" stroke="none">
<path d="M685 2525 c-203 -29 -371 -81 -480 -150 -55 -35 -121 -103 -135 -140
-5 -13 -12 -432 -16 -932 -8 -1025 -14 -944 71 -1022 117 -108 411 -202 678
-217 56 -3 117 -7 136 -9 65 -6 346 15 456 35 258 46 431 133 484 243 21 43
21 51 21 966 0 778 -2 926 -14 950 -56 108 -281 216 -556 266 -130 24 -506 30
-645 10z m485 -85 c325 -28 581 -123 634 -235 15 -30 15 -38 3 -67 -60 -144
-409 -248 -827 -248 -358 0 -677 78 -793 194 -44 43 -54 76 -37 116 68 165
558 280 1020 240z m650 -1226 c0 -893 5 -838 -74 -896 -301 -222 -1072 -249
-1468 -52 -77 38 -138 94 -139 127 -3 74 3 1603 6 1606 2 2 16 -6 32 -17 250
-176 862 -235 1293 -123 111 28 228 76 285 115 28 19 53 35 58 35 4 1 7 -357
7 -795z"/>
<path d="M435 1496 c-28 -12 -67 -28 -87 -35 -43 -14 -51 -23 -42 -44 12 -33
28 -31 130 14 75 32 88 33 160 1 117 -51 116 -51 222 1 55 26 96 27 153 0 94
-43 112 -46 170 -22 133 53 129 52 178 33 25 -9 51 -20 56 -24 6 -4 27 -13 47
-19 40 -13 78 -5 146 31 18 10 41 18 51 18 10 0 29 8 42 19 21 16 22 21 9 36
-18 21 -55 16 -132 -19 -72 -33 -85 -33 -168 4 -38 17 -83 30 -100 30 -17 0
-62 -13 -100 -30 -38 -16 -77 -30 -87 -30 -10 0 -52 14 -92 31 -86 36 -116 35
-203 -5 -72 -33 -85 -33 -168 4 -82 36 -119 37 -185 6z"/>
<path d="M435 1245 c-33 -15 -75 -31 -93 -36 -39 -12 -51 -34 -29 -56 13 -13
21 -13 53 -3 22 7 57 22 79 33 50 25 100 25 145 0 54 -30 115 -46 141 -38 13
4 54 20 91 36 74 32 61 34 198 -21 62 -25 91 -22 165 16 68 35 98 34 189 -6
l78 -34 61 23 c34 12 83 30 109 39 50 17 66 36 47 58 -17 21 -48 17 -117 -16
-80 -37 -104 -37 -184 0 -78 37 -105 37 -193 0 -85 -37 -101 -37 -173 -4 -87
40 -118 41 -200 5 -86 -38 -104 -38 -176 -5 -83 38 -120 39 -191 9z"/>
<path d="M442 995 c-29 -13 -71 -30 -93 -37 -47 -14 -59 -32 -36 -55 19 -19
57 -11 148 31 56 26 60 26 164 -18 77 -33 97 -32 175 5 79 38 108 38 182 4 89
-41 114 -42 192 -6 85 39 110 39 196 1 38 -16 78 -30 90 -30 12 0 52 13 88 29
37 16 80 33 95 37 34 8 44 28 26 50 -16 19 -49 14 -126 -22 -72 -33 -95 -33
-167 1 -91 42 -115 42 -193 5 -83 -39 -111 -39 -188 -4 -76 36 -123 36 -200 0
-75 -36 -104 -36 -185 3 -78 37 -99 38 -168 6z"/>
<path d="M445 744 c-33 -14 -77 -30 -97 -36 -40 -11 -55 -33 -37 -54 17 -21
43 -17 119 16 38 17 79 30 93 30 14 0 55 -14 92 -31 78 -37 119 -36 200 5 64
33 92 33 175 -4 38 -16 80 -30 95 -30 15 0 57 14 95 30 83 36 107 37 170 5 77
-39 117 -41 191 -10 35 14 78 31 96 36 18 5 35 14 38 18 8 14 -5 39 -23 46
-15 6 -113 -28 -140 -48 -23 -18 -87 -9 -156 23 -78 36 -95 35 -184 -6 -67
-32 -114 -34 -162 -7 -68 38 -108 47 -154 32 -22 -7 -54 -20 -71 -29 -59 -32
-81 -32 -155 0 -98 43 -116 44 -185 14z"/>
</g>
</svg>
