<?xml version="1.0" standalone="no"?>
<!DOCTYPE svg PUBLIC "-//W3C//DTD SVG 20010904//EN"
 "http://www.w3.org/TR/2001/REC-SVG-20010904/DTD/svg10.dtd">
<svg version="1.0" xmlns="http://www.w3.org/2000/svg"
 width="195.000000pt" height="259.000000pt" viewBox="0 0 195.000000 259.000000"
 preserveAspectRatio="xMidYMid meet">

<g transform="translate(0.000000,259.000000) scale(0.100000,-0.100000)"
fill="#000000" stroke="none">
<path d="M707 2519 c-312 -36 -565 -146 -626 -273 l-22 -45 -6 -913 -5 -913
28 -42 c165 -239 826 -349 1374 -228 208 46 347 125 403 230 21 40 21 40 21
956 l-1 916 -23 42 c-66 116 -294 218 -585 262 -137 20 -420 25 -558 8z m607
-109 c205 -35 361 -98 436 -175 122 -126 -87 -272 -485 -337 -121 -19 -504
-16 -630 5 -301 52 -495 154 -495 259 0 114 269 232 613 268 131 14 425 4 561
-20z m-1033 -494 c172 -80 394 -118 679 -118 333 0 616 63 774 172 25 16 47
30 50 30 12 0 6 -1590 -5 -1613 -86 -168 -553 -285 -984 -248 -317 27 -571
114 -643 221 l-24 35 6 450 c3 248 6 609 6 803 l0 353 33 -25 c18 -14 67 -41
108 -60z"/>
<path d="M677 1034 c1 -82 2 -157 2 -166 1 -16 12 -18 79 -18 133 0 186 47
186 164 -1 65 -17 107 -54 141 -17 16 -40 20 -118 23 l-97 4 2 -148z m197 75
c22 -26 26 -40 26 -94 0 -54 -4 -68 -26 -94 -24 -29 -31 -31 -90 -31 l-64 0 0
125 0 125 64 0 c59 0 66 -2 90 -31z"/>
<path d="M1007 1093 c1 -49 2 -123 2 -165 1 -62 4 -78 16 -78 13 0 15 22 15
137 0 76 4 133 8 128 5 -6 29 -68 53 -138 59 -171 66 -170 128 13 l46 135 3
-137 c2 -130 4 -138 22 -138 19 0 20 7 20 165 l0 165 -28 0 c-32 0 -40 -14
-92 -173 -18 -54 -36 -95 -40 -90 -4 4 -26 65 -50 136 l-42 127 -31 0 -32 0 2
-87z"/>
</g>
</svg>
