<?xml version="1.0" standalone="no"?>
<!DOCTYPE svg PUBLIC "-//W3C//DTD SVG 20010904//EN"
 "http://www.w3.org/TR/2001/REC-SVG-20010904/DTD/svg10.dtd">
<svg version="1.0" xmlns="http://www.w3.org/2000/svg"
 width="57.000000pt" height="67.000000pt" viewBox="0 0 57.000000 67.000000"
 preserveAspectRatio="xMidYMid meet">

<g transform="translate(0.000000,67.000000) scale(0.100000,-0.100000)"
fill="#000000" stroke="none">
<path d="M152 655 c-29 -8 -66 -21 -82 -30 -58 -30 -60 -38 -60 -286 0 -263 0
-262 98 -300 47 -19 77 -23 172 -23 133 -1 202 17 250 66 l30 30 0 228 0 228
-30 30 c-16 17 -51 38 -77 47 -67 24 -232 29 -301 10z m271 -29 c96 -29 136
-87 88 -130 -74 -67 -298 -83 -406 -29 -39 20 -75 53 -75 69 0 26 47 66 100
84 67 24 225 27 293 6z m-327 -183 c55 -26 68 -28 189 -28 122 0 134 2 186 28
31 15 58 27 60 27 3 0 3 -19 1 -42 -8 -87 -83 -123 -252 -122 -116 0 -206 26
-235 67 -13 18 -22 97 -11 97 2 0 30 -12 62 -27z m-5 -131 c108 -51 286 -50
391 3 27 14 51 25 52 25 9 0 -14 -104 -25 -112 -59 -41 -105 -52 -214 -53
-182 0 -265 39 -265 125 0 23 3 40 8 38 4 -2 27 -14 53 -26z m-8 -127 c99 -56
288 -57 398 -2 l49 24 0 -48 c0 -42 -4 -50 -31 -70 -48 -34 -114 -49 -214 -49
-165 0 -255 46 -255 129 0 23 2 41 4 41 2 0 24 -11 49 -25z"/>
</g>
</svg>
