<?xml version="1.0" standalone="no"?>
<!DOCTYPE svg PUBLIC "-//W3C//DTD SVG 20010904//EN"
 "http://www.w3.org/TR/2001/REC-SVG-20010904/DTD/svg10.dtd">
<svg version="1.0" xmlns="http://www.w3.org/2000/svg"
 width="195.000000pt" height="259.000000pt" viewBox="0 0 195.000000 259.000000"
 preserveAspectRatio="xMidYMid meet">

<g transform="translate(0.000000,259.000000) scale(0.100000,-0.100000)"
fill="#000000" stroke="none">
<path d="M707 2519 c-312 -36 -565 -146 -626 -273 -22 -45 -22 -45 -28 -958
l-5 -913 28 -42 c165 -238 827 -348 1374 -228 208 46 348 126 403 230 20 40
21 46 20 956 l0 916 -23 42 c-66 116 -294 218 -585 262 -137 20 -420 25 -558
8z m607 -109 c280 -48 471 -149 471 -250 0 -106 -209 -211 -520 -262 -105 -17
-482 -17 -598 0 -306 45 -527 155 -527 264 0 114 269 232 613 268 131 14 425
4 561 -20z m-1033 -494 c172 -80 394 -118 679 -118 333 0 616 63 774 172 25
16 47 30 50 30 12 0 6 -1590 -5 -1613 -50 -97 -233 -183 -485 -228 -157 -29
-487 -31 -639 -5 -211 35 -388 97 -463 161 -67 57 -66 40 -59 545 4 250 7 609
7 798 l0 343 33 -25 c18 -14 67 -41 108 -60z"/>
<path d="M677 1034 c1 -82 2 -157 2 -166 1 -16 12 -18 79 -18 133 0 186 47
186 164 -1 65 -17 107 -54 141 -17 16 -40 20 -118 23 l-97 4 2 -148z m198 74
c25 -29 27 -38 23 -99 -3 -55 -8 -73 -28 -94 -20 -22 -32 -25 -87 -25 l-63 0
0 125 0 125 64 0 c60 0 66 -2 91 -32z"/>
<path d="M1024 1018 c37 -140 46 -163 63 -166 23 -3 24 -3 69 163 31 114 39
128 48 88 4 -15 21 -79 38 -141 27 -99 33 -113 51 -110 17 3 26 26 57 139 56
205 53 189 31 189 -17 0 -24 -19 -52 -137 -22 -91 -35 -130 -40 -117 -4 10
-19 66 -34 124 -15 58 -29 111 -31 118 -2 6 -17 12 -34 12 -17 0 -30 -5 -30
-12 1 -20 -64 -258 -70 -258 -3 0 -19 61 -35 135 -27 123 -31 135 -51 135 -22
0 -22 -2 20 -162z"/>
</g>
</svg>
