<?xml version="1.0" standalone="no"?>
<!DOCTYPE svg PUBLIC "-//W3C//DTD SVG 20010904//EN"
 "http://www.w3.org/TR/2001/REC-SVG-20010904/DTD/svg10.dtd">
<svg version="1.0" xmlns="http://www.w3.org/2000/svg"
 width="75.000000pt" height="76.000000pt" viewBox="0 0 75.000000 76.000000"
 preserveAspectRatio="xMidYMid meet">

<g transform="translate(0.000000,76.000000) scale(0.100000,-0.100000)"
fill="#000000" stroke="none">
<path d="M170 737 c-70 -17 -127 -44 -145 -71 -12 -16 -15 -66 -15 -258 0
-228 1 -239 21 -259 47 -47 187 -83 301 -78 31 2 54 -3 65 -13 63 -55 150 -63
234 -21 45 23 59 37 82 83 25 47 28 64 25 117 -5 73 -42 136 -98 167 l-35 18
3 109 4 109 -34 34 c-21 21 -55 41 -89 51 -71 22 -247 28 -319 12z m319 -46
c87 -33 112 -69 73 -104 -86 -78 -363 -91 -473 -22 -46 30 -53 40 -45 69 19
75 303 111 445 57z m-222 -199 c113 -5 205 8 265 39 20 10 40 19 43 19 11 0 5
-99 -7 -107 -7 -4 -33 -9 -58 -10 -29 -2 -63 -14 -93 -33 -41 -26 -58 -30
-115 -30 -81 0 -184 23 -229 51 -31 19 -33 24 -33 74 l0 53 63 -26 c48 -19 86
-26 164 -30z m-89 -141 c29 -6 79 -11 111 -11 l58 0 -16 -50 -16 -50 -45 0
c-58 0 -154 25 -196 51 -28 17 -33 26 -36 68 l-3 48 45 -23 c25 -12 69 -27 98
-33z m448 24 c88 -52 112 -182 47 -263 -123 -154 -355 -43 -319 152 21 114
166 173 272 111z m-512 -137 c27 -11 83 -22 125 -26 l75 -7 9 -35 c5 -19 13
-40 18 -47 17 -19 -9 -26 -79 -19 -87 9 -162 31 -194 56 -20 15 -27 31 -30 65
-3 37 -1 44 12 39 8 -4 37 -15 64 -26z"/>
<path d="M520 265 c0 -69 3 -85 15 -85 12 0 15 16 15 85 0 69 -3 85 -15 85
-12 0 -15 -16 -15 -85z"/>
<path d="M520 126 c0 -17 5 -26 16 -26 10 0 14 7 12 22 -5 32 -28 35 -28 4z"/>
</g>
</svg>
