<?xml version="1.0" standalone="no"?>
<!DOCTYPE svg PUBLIC "-//W3C//DTD SVG 20010904//EN"
 "http://www.w3.org/TR/2001/REC-SVG-20010904/DTD/svg10.dtd">
<svg version="1.0" xmlns="http://www.w3.org/2000/svg"
 width="273.000000pt" height="273.000000pt" viewBox="0 0 273.000000 273.000000"
 preserveAspectRatio="xMidYMid meet">

<g transform="translate(0.000000,273.000000) scale(0.100000,-0.100000)"
fill="#000000" stroke="none">
<path d="M1245 2724 c-206 -28 -297 -53 -437 -115 -291 -130 -557 -395 -686
-684 -86 -195 -116 -337 -116 -560 0 -382 128 -691 398 -961 270 -270 579
-398 961 -398 382 0 691 128 961 398 270 270 398 579 398 961 0 382 -128 691
-398 961 -203 203 -434 326 -708 379 -81 16 -314 28 -373 19z m360 -159 c486
-100 858 -473 961 -965 25 -117 25 -353 0 -470 -103 -494 -472 -863 -966 -966
-117 -25 -353 -25 -470 0 -494 103 -863 472 -966 966 -25 117 -25 353 0 470
110 523 520 907 1046 980 91 12 300 5 395 -15z"/>
<path d="M776 1938 c-11 -16 -12 -26 -5 -40 6 -11 114 -158 240 -326 l229
-307 0 -243 c0 -149 4 -251 10 -263 16 -29 41 -24 150 31 l100 50 0 208 0 208
240 322 c132 177 240 330 240 340 0 42 0 42 -606 42 l-583 0 -15 -22z m1007
-170 c-44 -57 -143 -187 -221 -290 l-142 -186 0 -199 0 -199 -45 -22 -45 -22
0 219 0 218 -201 264 c-111 145 -210 276 -221 292 l-19 27 486 0 487 0 -79
-102z"/>
</g>
</svg>
