<?xml version="1.0" standalone="no"?>
<!DOCTYPE svg PUBLIC "-//W3C//DTD SVG 20010904//EN"
 "http://www.w3.org/TR/2001/REC-SVG-20010904/DTD/svg10.dtd">
<svg version="1.0" xmlns="http://www.w3.org/2000/svg"
 width="119.000000pt" height="81.000000pt" viewBox="0 0 119.000000 81.000000"
 preserveAspectRatio="xMidYMid meet">

<g transform="translate(0.000000,81.000000) scale(0.100000,-0.100000)"
fill="#000000" stroke="none">
<path d="M79 788 c-20 -11 -47 -38 -58 -59 -21 -37 -22 -47 -19 -338 3 -285 4
-301 24 -328 47 -64 39 -63 574 -63 466 0 486 1 518 20 18 11 41 34 52 52 19
31 20 47 18 338 -3 297 -4 306 -25 336 -46 65 -41 64 -570 64 -468 0 -479 -1
-514 -22z m1001 -46 c58 -29 60 -38 60 -345 l0 -279 -34 -34 -34 -34 -476 0
-476 0 -32 29 -33 29 -3 281 c-2 242 -1 285 13 311 30 59 36 59 530 60 409 0
453 -2 485 -18z"/>
</g>
</svg>
