<?xml version="1.0" standalone="no"?>
<!DOCTYPE svg PUBLIC "-//W3C//DTD SVG 20010904//EN"
 "http://www.w3.org/TR/2001/REC-SVG-20010904/DTD/svg10.dtd">
<svg version="1.0" xmlns="http://www.w3.org/2000/svg"
 width="274.000000pt" height="274.000000pt" viewBox="0 0 274.000000 274.000000"
 preserveAspectRatio="xMidYMid meet">

<g transform="translate(0.000000,274.000000) scale(0.100000,-0.100000)"
fill="#000000" stroke="none">
<path d="M1185 2725 c-451 -63 -835 -338 -1039 -744 -191 -378 -191 -844 0
-1222 215 -428 619 -703 1103 -751 550 -55 1092 247 1345 751 191 378 191 844
0 1222 -264 525 -832 825 -1409 744z m360 -140 c457 -65 843 -387 990 -827
150 -450 29 -941 -314 -1271 -333 -320 -804 -427 -1239 -282 -440 147 -762
533 -827 990 -57 395 77 781 364 1058 278 267 646 386 1026 332z"/>
<path d="M876 1904 c-9 -8 -16 -22 -16 -30 0 -8 71 -92 157 -187 86 -95 165
-182 176 -194 l19 -21 -176 -286 c-97 -157 -176 -292 -176 -300 0 -8 10 -22
22 -30 20 -14 84 -16 501 -16 311 0 485 4 498 10 18 10 19 23 19 196 l0 184
-25 12 c-21 9 -28 8 -45 -7 -18 -17 -20 -31 -20 -162 l0 -143 -410 0 c-225 0
-410 2 -410 4 0 3 72 122 160 265 88 143 160 270 160 282 0 19 -89 123 -259
302 l-45 47 312 0 312 0 0 -29 c0 -49 48 -79 78 -49 16 16 16 140 0 156 -9 9
-115 12 -414 12 -353 0 -405 -2 -418 -16z"/>
</g>
</svg>
