<?xml version="1.0" standalone="no"?>
<!DOCTYPE svg PUBLIC "-//W3C//DTD SVG 20010904//EN"
 "http://www.w3.org/TR/2001/REC-SVG-20010904/DTD/svg10.dtd">
<svg version="1.0" xmlns="http://www.w3.org/2000/svg"
 width="239.000000pt" height="278.000000pt" viewBox="0 0 239.000000 278.000000"
 preserveAspectRatio="xMidYMid meet">

<g transform="translate(0.000000,278.000000) scale(0.100000,-0.100000)"
fill="#000000" stroke="none">
<path d="M334 2760 c-80 -23 -138 -58 -197 -117 -60 -60 -94 -117 -118 -201
-18 -64 -19 -114 -19 -1052 0 -938 1 -988 19 -1052 24 -84 58 -141 118 -201
60 -60 117 -94 201 -118 63 -18 110 -19 857 -19 747 0 794 1 857 19 84 24 141
58 201 118 60 60 94 117 118 201 18 64 19 114 19 1052 0 938 -1 988 -19 1052
-24 84 -58 141 -118 201 -60 60 -117 94 -201 118 -63 18 -109 19 -862 18 -737
0 -799 -2 -856 -19z m1718 -189 c57 -29 98 -71 130 -131 23 -44 23 -51 26
-375 l2 -330 -25 73 c-49 141 -120 255 -231 372 -165 173 -363 275 -607 315
-277 45 -569 -24 -800 -189 -130 -93 -268 -260 -338 -409 l-29 -62 3 280 c2
272 3 281 25 325 40 75 100 127 173 149 21 6 335 9 829 8 l795 -2 47 -24z
m-625 -235 c210 -58 409 -197 520 -364 49 -74 107 -204 129 -287 25 -97 25
-303 0 -400 -22 -83 -80 -213 -129 -287 -112 -168 -310 -306 -525 -366 -85
-23 -115 -26 -242 -26 -127 0 -157 3 -242 26 -215 60 -413 198 -525 366 -49
74 -107 204 -129 287 -25 97 -25 303 0 400 67 257 237 465 483 589 70 35 178
69 272 87 86 15 287 3 388 -25z m781 -1621 c-3 -324 -3 -331 -26 -375 -32 -60
-73 -102 -130 -131 l-47 -24 -810 0 -810 0 -45 23 c-60 32 -102 73 -131 130
-24 47 -24 48 -26 422 l-3 375 29 -62 c70 -149 208 -316 338 -409 231 -165
523 -234 800 -189 374 61 683 302 820 639 18 45 34 90 35 101 6 51 9 -200 6
-500z"/>
<path d="M812 1978 c-7 -7 -12 -17 -12 -24 0 -6 59 -76 130 -155 72 -79 130
-147 130 -151 0 -4 -55 -97 -121 -205 -146 -237 -146 -238 -129 -258 11 -13
63 -15 384 -15 276 0 375 3 384 12 8 8 12 55 12 144 0 108 -3 134 -16 145 -11
9 -20 10 -32 2 -14 -8 -18 -30 -20 -122 l-3 -111 -309 0 c-171 0 -310 2 -310
4 0 3 54 93 120 201 66 107 120 202 120 211 0 9 -44 64 -98 123 -53 58 -103
114 -111 124 -13 16 -1 17 217 17 l230 0 5 -29 c7 -32 33 -47 54 -30 10 9 13
29 11 68 l-3 56 -310 3 c-233 2 -314 -1 -323 -10z"/>
</g>
</svg>
