<?xml version="1.0" standalone="no"?>
<!DOCTYPE svg PUBLIC "-//W3C//DTD SVG 20010904//EN"
 "http://www.w3.org/TR/2001/REC-SVG-20010904/DTD/svg10.dtd">
<svg version="1.0" xmlns="http://www.w3.org/2000/svg"
 width="274.000000pt" height="274.000000pt" viewBox="0 0 274.000000 274.000000"
 preserveAspectRatio="xMidYMid meet">

<g transform="translate(0.000000,274.000000) scale(0.100000,-0.100000)"
fill="#000000" stroke="none">
<path d="M1185 2725 c-451 -63 -835 -338 -1039 -744 -191 -378 -191 -844 0
-1222 215 -428 619 -703 1103 -751 550 -55 1092 247 1345 751 191 378 191 844
0 1222 -264 525 -832 825 -1409 744z m360 -140 c457 -65 843 -387 990 -827
150 -450 29 -941 -314 -1271 -333 -320 -804 -427 -1239 -282 -440 147 -762
533 -827 990 -57 395 77 781 364 1058 278 267 646 386 1026 332z"/>
<path d="M1037 1689 c-50 -12 -139 -69 -171 -111 -113 -148 -95 -359 40 -478
61 -54 122 -75 214 -75 101 1 157 23 229 93 42 41 50 45 93 43 43 -2 52 2 93
40 l46 42 27 -26 c34 -32 53 -34 77 -7 10 11 25 20 34 20 9 0 23 -9 31 -20 20
-27 49 -25 81 6 l27 26 23 -26 c36 -42 58 -34 142 53 103 106 104 122 8 214
l-69 67 -285 0 -286 0 -21 30 c-12 17 -45 45 -73 63 -82 52 -168 68 -260 46z
m180 -104 c31 -14 68 -44 94 -75 l42 -50 289 0 289 0 40 -41 39 -40 -32 -39
c-18 -22 -38 -40 -45 -40 -7 0 -23 11 -37 25 -14 14 -29 25 -35 25 -5 0 -23
-11 -39 -25 -37 -31 -37 -31 -74 0 -31 26 -50 24 -78 -9 -17 -22 -37 -20 -50
3 -21 41 -48 36 -106 -19 -52 -49 -56 -51 -105 -49 -51 3 -53 2 -98 -49 -62
-69 -110 -92 -189 -92 -34 0 -79 7 -100 15 -54 23 -108 80 -133 142 -83 204
133 413 328 318z"/>
<path d="M985 1471 c-28 -12 -51 -40 -66 -83 -11 -32 -10 -42 6 -78 62 -137
249 -85 233 65 -8 65 -40 97 -105 101 -26 2 -57 0 -68 -5z m93 -95 c16 -35
-14 -72 -50 -63 -29 8 -39 32 -27 65 12 32 62 30 77 -2z"/>
</g>
</svg>
