<?xml version="1.0" standalone="no"?>
<!DOCTYPE svg PUBLIC "-//W3C//DTD SVG 20010904//EN"
 "http://www.w3.org/TR/2001/REC-SVG-20010904/DTD/svg10.dtd">
<svg version="1.0" xmlns="http://www.w3.org/2000/svg"
 width="274.000000pt" height="274.000000pt" viewBox="0 0 274.000000 274.000000"
 preserveAspectRatio="xMidYMid meet">

<g transform="translate(0.000000,274.000000) scale(0.100000,-0.100000)"
fill="#000000" stroke="none">
<path d="M1185 2725 c-451 -63 -835 -338 -1039 -744 -191 -378 -191 -844 0
-1222 215 -428 619 -703 1103 -751 550 -55 1092 247 1345 751 191 378 191 844
0 1222 -264 525 -832 825 -1409 744z m360 -140 c457 -65 843 -387 990 -827
150 -450 29 -941 -314 -1271 -333 -320 -804 -427 -1239 -282 -440 147 -762
533 -827 990 -57 395 77 781 364 1058 278 267 646 386 1026 332z"/>
<path d="M1143 2003 c-10 -4 -13 -139 -13 -628 0 -559 2 -623 16 -629 9 -3
116 -6 239 -6 212 0 225 1 235 19 6 13 10 224 10 616 0 392 -4 603 -10 616
-10 18 -23 19 -238 18 -125 0 -233 -3 -239 -6z m462 -628 l0 -610 -227 -3
-228 -2 0 615 0 615 228 -2 227 -3 0 -610z"/>
<path d="M1326 1915 c-110 -39 -151 -169 -81 -261 95 -125 295 -57 295 100 0
117 -108 199 -214 161z m60 -52 c-4 -4 -21 -12 -39 -18 -23 -7 -38 -22 -52
-52 -21 -43 -35 -55 -35 -28 0 28 30 74 58 89 27 15 81 22 68 9z"/>
<path d="M1290 1518 c-58 -40 -75 -72 -75 -143 0 -71 17 -103 75 -142 46 -32
124 -32 171 0 107 72 107 212 0 284 -47 32 -125 32 -171 1z m165 -18 c46 -28
68 -80 62 -143 -4 -43 -10 -56 -45 -89 -35 -33 -48 -38 -87 -38 -102 0 -169
78 -151 175 8 39 49 93 80 105 39 16 107 11 141 -10z"/>
<path d="M1318 1474 c-28 -15 -58 -61 -58 -89 0 -27 14 -15 35 28 14 30 29 45
52 52 18 6 35 14 39 18 13 13 -41 6 -68 -9z"/>
<path d="M1294 1141 c-97 -59 -112 -197 -29 -270 114 -100 275 -25 275 126 0
58 -26 105 -79 140 -44 30 -122 31 -167 4z m144 -15 c49 -26 75 -62 80 -114 9
-97 -50 -162 -146 -162 -143 0 -194 187 -73 267 39 26 98 30 139 9z"/>
<path d="M1318 1092 c-33 -20 -62 -77 -53 -100 6 -14 9 -13 15 9 14 48 30 68
65 80 19 7 35 17 35 21 0 14 -34 8 -62 -10z"/>
</g>
</svg>
