<?xml version="1.0" standalone="no"?>
<!DOCTYPE svg PUBLIC "-//W3C//DTD SVG 20010904//EN"
 "http://www.w3.org/TR/2001/REC-SVG-20010904/DTD/svg10.dtd">
<svg version="1.0" xmlns="http://www.w3.org/2000/svg"
 width="79.000000pt" height="75.000000pt" viewBox="0 0 79.000000 75.000000"
 preserveAspectRatio="xMidYMid meet">

<g transform="translate(0.000000,75.000000) scale(0.100000,-0.100000)"
fill="#000000" stroke="none">
<path d="M260 693 c-74 -5 -164 -24 -187 -39 -23 -14 -23 -17 -23 -244 l0
-229 28 -15 c38 -20 133 -36 210 -36 55 0 63 2 60 18 -3 14 -19 18 -99 23 -53
4 -113 12 -133 19 l-36 12 0 79 c0 43 1 79 3 79 1 0 38 -7 82 -15 44 -8 104
-14 133 -15 44 0 52 3 52 18 0 17 -11 20 -93 25 -51 3 -111 12 -132 19 l-40
13 -3 81 -3 82 58 -15 c78 -19 310 -19 381 1 l52 14 0 -69 c0 -55 3 -69 15
-69 12 0 15 19 15 108 0 104 -1 109 -23 119 -53 24 -218 43 -317 36z m260 -57
c25 -6 44 -15 43 -21 -8 -45 -451 -49 -478 -4 -25 39 302 58 435 25z"/>
<path d="M517 407 c-119 -38 -179 -171 -128 -282 84 -182 364 -138 387 61 8
60 -7 112 -43 155 -50 59 -145 88 -216 66z m131 -41 c73 -38 114 -125 93 -196
-42 -140 -207 -176 -299 -64 -70 85 -48 194 53 255 36 23 115 25 153 5z"/>
<path d="M560 351 c0 -12 6 -21 16 -21 9 0 14 7 12 17 -5 25 -28 28 -28 4z"/>
<path d="M566 303 c-3 -3 -6 -21 -6 -40 0 -31 -2 -33 -35 -33 -24 0 -35 -5
-35 -15 0 -11 12 -15 50 -15 l50 0 0 49 c0 47 -9 68 -24 54z"/>
<path d="M422 214 c4 -21 22 -23 26 -1 2 10 -3 17 -13 17 -10 0 -15 -6 -13
-16z"/>
<path d="M694 219 c-8 -14 18 -31 30 -19 9 9 0 30 -14 30 -5 0 -12 -5 -16 -11z"/>
<path d="M562 74 c4 -21 22 -23 26 -1 2 10 -3 17 -13 17 -10 0 -15 -6 -13 -16z"/>
</g>
</svg>
