<?xml version="1.0" standalone="no"?>
<!DOCTYPE svg PUBLIC "-//W3C//DTD SVG 20010904//EN"
 "http://www.w3.org/TR/2001/REC-SVG-20010904/DTD/svg10.dtd">
<svg version="1.0" xmlns="http://www.w3.org/2000/svg"
 width="273.000000pt" height="274.000000pt" viewBox="0 0 273.000000 274.000000"
 preserveAspectRatio="xMidYMid meet">

<g transform="translate(0.000000,274.000000) scale(0.100000,-0.100000)"
fill="#000000" stroke="none">
<path d="M1206 2730 c-299 -38 -571 -168 -787 -377 -438 -424 -543 -1081 -258
-1622 189 -360 530 -617 932 -703 145 -31 399 -31 544 0 256 55 486 177 674
359 438 424 543 1081 258 1622 -189 360 -535 621 -931 701 -115 24 -326 33
-432 20z m399 -155 c455 -94 812 -428 941 -880 8 -27 21 -95 29 -150 52 -356
-56 -721 -290 -985 -187 -209 -412 -339 -685 -396 -117 -25 -353 -25 -470 0
-463 97 -817 427 -946 881 -8 28 -21 95 -29 150 -52 356 56 721 290 985 206
230 463 368 765 410 91 12 300 5 395 -15z"/>
<path d="M1137 1643 c-4 -3 -7 -107 -7 -229 0 -217 1 -225 25 -278 46 -100
138 -159 250 -157 97 1 190 64 232 159 22 50 23 63 23 282 l0 230 -35 0 -35 0
0 -203 c0 -149 -4 -217 -14 -252 -25 -81 -105 -146 -180 -144 -61 1 -129 40
-157 89 -34 63 -39 96 -39 303 l0 207 -28 0 c-16 0 -32 -3 -35 -7z"/>
</g>
</svg>
