<?xml version="1.0" standalone="no"?>
<!DOCTYPE svg PUBLIC "-//W3C//DTD SVG 20010904//EN"
 "http://www.w3.org/TR/2001/REC-SVG-20010904/DTD/svg10.dtd">
<svg version="1.0" xmlns="http://www.w3.org/2000/svg"
 width="274.000000pt" height="273.000000pt" viewBox="0 0 274.000000 273.000000"
 preserveAspectRatio="xMidYMid meet">

<g transform="translate(0.000000,273.000000) scale(0.100000,-0.100000)"
fill="#000000" stroke="none">
<path d="M1185 2715 c-295 -41 -554 -167 -766 -372 -199 -192 -333 -435 -391
-706 -31 -145 -31 -399 0 -544 58 -271 192 -514 391 -706 530 -513 1372 -513
1902 0 199 192 333 435 391 706 31 145 31 399 0 544 -88 411 -358 762 -730
947 -244 122 -528 169 -797 131z m360 -140 c155 -23 272 -60 393 -125 340
-184 560 -476 638 -850 25 -117 25 -353 0 -470 -97 -463 -427 -817 -881 -946
-27 -8 -95 -21 -150 -29 -356 -52 -721 56 -985 290 -209 187 -339 412 -396
685 -25 117 -25 353 0 470 136 647 734 1070 1381 975z"/>
<path d="M2002 1907 c-11 -7 -53 -49 -92 -94 -40 -46 -75 -83 -78 -83 -3 0
-21 14 -39 32 -29 28 -36 31 -60 22 -21 -7 -29 -17 -31 -40 -3 -25 6 -39 57
-87 33 -31 66 -57 75 -57 20 0 49 27 151 143 73 84 86 103 83 129 -4 36 -34
52 -66 35z"/>
<path d="M735 1725 c-30 -29 -31 -45 -4 -79 l20 -26 370 0 c356 0 370 1 389
20 27 27 25 56 -5 85 l-24 25 -361 0 -361 0 -24 -25z"/>
<path d="M1925 1400 c-43 -49 -80 -90 -82 -90 -3 0 -21 14 -40 30 -18 17 -40
30 -48 30 -18 0 -55 -35 -55 -51 0 -6 29 -41 64 -77 59 -61 67 -66 90 -57 35
13 226 234 226 260 0 29 -19 45 -51 45 -21 0 -42 -19 -104 -90z"/>
<path d="M737 1302 c-22 -24 -21 -65 1 -85 17 -15 58 -17 389 -17 346 0 371 1
386 18 21 23 22 66 1 86 -13 14 -63 16 -388 16 -349 0 -374 -1 -389 -18z"/>
<path d="M1929 975 l-82 -94 -39 34 c-21 19 -42 35 -46 35 -19 0 -52 -33 -52
-51 0 -28 107 -139 134 -139 29 0 31 3 122 105 133 151 138 159 108 189 -33
34 -58 20 -145 -79z"/>
<path d="M746 884 c-20 -20 -20 -68 0 -88 13 -14 63 -16 388 -16 349 0 374 1
389 18 22 24 21 65 -1 85 -17 15 -58 17 -390 17 -324 0 -373 -2 -386 -16z"/>
</g>
</svg>
